# xmcd
#
# Track frame offsets:
#	210
#	15474
#	25658
#	37662
#	48824
#	71018
#	84797
#	92070
#	100904
#	113965
#	120634
#	134749
#	148777
#	158324
#	169247
#
# Disc length: 2455 seconds
#
# Revision: 1
# Processed by: cddbd v1.5.1PL0 Copyright (c) Steve Scherf et al.
# Submitted via: EasyCDDAExtractor 8.1.4.1
#
DISCID=b409950f
DTITLE=Eddy Harrison - Songs Around The Campfire
DYEAR=2001
DGENRE=Country
TTITLE0=Strawberry Roan
TTITLE1=I'm My Own Grandpa
TTITLE2=Mexicali Rose
TTITLE3="Purt Near"
TTITLE4=Mister Shorty
TTITLE5=Old Flames Can't Hold A Flame To You
TTITLE6=The Rancher's Revenge
TTITLE7=Ugly Woman's Blues
TTITLE8=Sing A Song For Daisy
TTITLE9=The Rancher's Reward
TTITLE10=Old Red
TTITLE11=The Cattle Call
TTITLE12=I Saw The Lord Save A Soul One Time
TTITLE13=I'm Gonna Rise Some Morning
TTITLE14=Amazing Grace
EXTD=
EXTT0=
EXTT1=
EXTT2=
EXTT3=
EXTT4=
EXTT5=
EXTT6=
EXTT7=
EXTT8=
EXTT9=
EXTT10=
EXTT11=
EXTT12=
EXTT13=
EXTT14=
PLAYORDER=
